<?xml version="1.0" encoding="UTF-8" standalone="no"?>
<!-- Generator: Adobe Illustrator 24.3.0, SVG Export Plug-In . SVG Version: 6.00 Build 0)  -->

<svg
   version="1.1"
   x="0px"
   y="0px"
   viewBox="0 0 245 227.21"
   xml:space="preserve"
   id="svg21"
   sodipodi:docname="peterportfolio.svg"
   width="245"
   height="227.21001"
   inkscape:version="1.4 (e7c3feb1, 2024-10-09)"
   xmlns:inkscape="http://www.inkscape.org/namespaces/inkscape"
   xmlns:sodipodi="http://sodipodi.sourceforge.net/DTD/sodipodi-0.dtd"
   xmlns="http://www.w3.org/2000/svg"
   xmlns:svg="http://www.w3.org/2000/svg"><defs
   id="defs21" /><sodipodi:namedview
   id="namedview21"
   pagecolor="#ffffff"
   bordercolor="#000000"
   borderopacity="0.25"
   inkscape:showpageshadow="2"
   inkscape:pageopacity="0.0"
   inkscape:pagecheckerboard="0"
   inkscape:deskcolor="#d1d1d1"
   inkscape:zoom="1.5418534"
   inkscape:cx="342.12072"
   inkscape:cy="113.49977"
   inkscape:window-width="1808"
   inkscape:window-height="943"
   inkscape:window-x="58"
   inkscape:window-y="62"
   inkscape:window-maximized="0"
   inkscape:current-layer="svg21" />
<style
   type="text/css"
   id="style1">
	.st0{fill:#F9F8F3;}
	.st1{fill:#28706C;}
	.st2{fill:#A34623;}
	.st3{fill:#F4AB8F;stroke:#010101;stroke-miterlimit:10;}
	.st4{fill:#944B25;}
	.st5{fill:#D87151;stroke:#010101;stroke-width:0.75;stroke-miterlimit:10;}
	.st6{fill:#010101;}
	.st7{fill:#2C140E;stroke:#000000;stroke-miterlimit:10;}
	.st8{fill:none;stroke:#010101;stroke-miterlimit:10;}
	.st9{fill:#D87151;}
	.st10{fill:#2C140E;}
	.st11{fill:#F4AB8F;}
	.st12{fill:#ED9A22;stroke:#010101;stroke-width:0.75;stroke-miterlimit:10;}
	.st13{fill:#F0B940;}
	.st14{opacity:0.43;fill:#52130F;}
	.st15{opacity:0.4;fill:#52130F;}
	.st16{fill:#EAAC2B;}
	.st17{fill:none;stroke:#010101;stroke-width:0.75;stroke-miterlimit:10;}
</style>

<g
   id="Layer_1"
   transform="translate(-241.26807)">
	<path
   class="st1"
   d="m 329.62,68.48 c 11.51,-6.83 25.71,-8.57 38.02,-14.09 4.72,-2.12 9.64,-5.56 9.81,-10.4 -3.3,7.15 -9.56,13.1 -17.21,16.35 9.89,1.42 19.92,-1.58 28.96,-5.53 9.04,-3.95 17.64,-8.9 27.15,-11.78 -0.72,7.33 -15.22,7.07 -16.81,14.29 16.94,-6.29 32.98,-14.62 47.59,-24.72 -9.35,2.13 -17.76,7.58 -23.09,14.98 9.66,-1.15 19.03,-4.26 27.27,-9.05 -7.12,4.09 -13.74,8.91 -19.71,14.34 8.65,-1.51 16.88,-4.99 23.77,-10.05 -9.85,10.56 -27.77,12.14 -37.62,22.69 -4.84,5.19 -7.17,12 -11.57,17.51 -6.18,7.73 -16.79,13.75 -17.17,23.35 14.47,-8.02 27.66,-18 39,-29.53 2.54,-2.58 5.05,-5.28 8.32,-7.03 4.55,-2.43 10.94,-3.43 12.57,-8.04 -0.59,4.34 -4.27,8.18 -8.86,9.25 0.28,1.98 3.13,3.19 4.95,2.11 0.66,1.52 0.61,3.28 -0.13,4.77 -2.62,-0.86 -5.56,0.55 -7.35,2.52 -1.79,1.97 -2.8,4.43 -4.24,6.62 -3.95,6 -10.86,9.67 -16.77,14.09 -5.91,4.42 -11.33,10.8 -10.25,17.75 13.84,-3.15 29.15,-7.27 36.3,-18.64 3.84,-6.1 6.4,-14.85 14.01,-15.49 0.08,1.33 0.16,2.67 0.24,4 4.09,-2.82 8.62,-5.1 13.4,-6.76 -2.18,4.07 -4.37,8.13 -6.55,12.2 2.24,0.05 2.76,3.2 1.4,4.84 -1.36,1.64 -3.63,2.41 -5.23,3.86 -2.02,1.83 -2.75,4.52 -3.91,6.91 -1.95,4.04 -5.23,7.38 -8.46,10.65 -13.57,13.73 -27.13,27.47 -40.7,41.2 8.85,0.38 18.36,0.61 25.79,-3.83 6.84,-4.08 11.53,-11.89 19.6,-12.89 -4.99,5.4 -9.98,10.79 -14.97,16.19 1.02,-1.66 4.14,-0.77 4.78,1.04 0.64,1.82 -0.36,3.76 -1.47,5.37 -6.25,9.1 -16.57,15.14 -23.99,23.47 -6.15,6.9 -10.29,15.36 -17.53,21.3 -10.59,8.68 -25.67,10.38 -39.71,12.13 -21.36,2.67 -31.69,-4.1 -52.63,0.63 -4.91,1.11 -17.75,-0.61 -19.26,3.84 -2.72,-4.8 -7.9,0.96 -10.62,-3.84 -0.92,-1.62 -3.09,-0.04 -2.49,-1.78 0.5,-1.43 1.93,-2.4 3.31,-3.19 8.14,-4.64 18.1,-6.97 24.46,-13.57 5.45,-5.65 7.29,-14.05 4.65,-21.21 -9.75,2.81 -19.07,6.88 -27.6,12.07 -1.09,-6.36 1.73,-12.88 6.11,-17.9 4.38,-5.02 10.19,-8.78 16,-12.37 -4.14,2.33 -8.27,4.66 -12.41,6.99 7.74,-6.92 18.66,-9.65 28.78,-13.1 10.12,-3.45 20.66,-8.6 24.81,-17.78 -7.48,2.61 -14.57,6.15 -21.03,10.49 9.64,-6.57 19.28,-13.13 28.92,-19.7 -13.61,4.07 -26.73,9.53 -39.04,16.25 2.65,-7.04 4.94,-14.19 6.84,-21.44 -10.88,5.75 -21.31,12.23 -31.19,19.35 -3.86,2.78 -7.97,7.61 -5.05,11.24 2.08,2.58 6.3,2.36 9.71,1.66 7.31,-1.49 14.38,-3.96 20.93,-7.3 -7,5.37 -15.18,9.42 -23.9,11.83 -2.12,0.59 -4.5,1.06 -6.47,0.14 -2.23,-1.04 -3.16,-3.47 -3.83,-5.69 -1.43,-4.78 -2.53,-9.64 -3.3,-14.55 -3.19,7.43 -5.93,17.01 0.37,22.5 -6.59,1.5 -13.92,-0.1 -19.09,-4.17 6.21,-10.48 15.11,-19.6 25.75,-26.41 7.16,-4.58 15.11,-8.14 21.79,-13.3 6.68,-5.16 12.18,-12.49 11.99,-20.52 -4.51,2.73 -9.45,4.86 -14.61,6.32 6.62,-4.31 12.94,-9.02 18.89,-14.1 -1.52,-0.02 -3.05,-0.04 -4.57,-0.06 5.06,-3.93 9.45,-8.58 12.97,-13.75 -8.01,3.39 -15.56,7.7 -22.43,12.79 -2.44,1.81 -4.9,3.77 -7.9,4.6 -2.74,0.76 -5.68,0.49 -8.54,0.43 -10.78,-0.22 -21.61,2.69 -30.59,8.2 9.84,-7.42 23,-10.99 35.63,-9.67 -4.84,0.06 -9.69,-0.36 -14.43,-1.25 10.52,-2.34 18.73,-3.87 27.17,-10.49 7.55,-5.92 13.87,-13.17 22.27,-18.14 z"
   id="path1" />
	<path
   class="st2"
   d="m 327.36,212.29 c 0,0 -7.74,-19.89 -7.74,-24.31 0,-4.42 0,-17.68 0,-17.68 0,0 2.21,18.79 0,25.42 -2.21,6.63 3.87,23.21 3.87,23.21 z"
   id="path2" />
	<path
   class="st3"
   d="m 376.81,124.08 -29.14,1.63 c 0,0 1.89,18.79 0,22.06 -1.89,3.27 -7.55,5.99 -11.6,7.35 -4.05,1.36 -15.76,8.95 -19.81,17.61 -3.97,8.48 -7.34,16.7 -7.34,16.7 h 109.71 c 0,0 -2.7,-16.88 -11.06,-23.42 -8.36,-6.54 -18.38,-12.3 -25.17,-13.59 -5.85,-1.11 -5.32,-7.1 -5.32,-7.1 z"
   id="path3" />
	<path
   class="st4"
   d="m 349.56,131.65 c 0,0 7.78,13.94 14.98,13.13 7.2,-0.8 11.81,-6.55 11.81,-6.55 l -0.09,-7.49 c 0,0 -7.11,6.34 -12.59,5.1 -5.47,-1.24 -14.11,-4.19 -14.11,-4.19 z"
   id="path4" />
	<path
   class="st5"
   d="m 383.15,104.17 c 0,0 2.43,-3.37 5.36,-1.84 2.93,1.53 2.5,6.86 2.33,7.96 -0.51,3.17 -3.24,7.66 -5.67,7.56 -2.43,-0.1 -4.05,-1.23 -4.05,-1.23 z"
   id="path5" />
	<path
   class="st5"
   d="m 340.97,104.17 c 0,0 -2.43,-3.37 -5.36,-1.84 -2.93,1.53 -2.5,6.86 -2.33,7.96 0.51,3.17 3.24,7.66 5.67,7.56 2.43,-0.1 4.05,-1.23 4.05,-1.23 z"
   id="path6" />
	<path
   class="st3"
   d="m 361.38,73.33 c 0,0 12.95,-0.27 18.08,3.81 5.13,4.08 4.05,19.88 4.05,19.88 0,0 2.32,38.12 -20.15,40.03 -22.47,1.91 -24.36,-37.03 -24.36,-37.03 0,0 -2.58,-17.02 1.08,-20.42 6.74,-6.27 21.3,-6.27 21.3,-6.27 z"
   id="path7" />
	<path
   class="st6"
   d="m 347.34,94.57 c 0,0 4.65,-2.76 6.47,-3.06 1.82,-0.3 5.06,0 5.06,0 v 2.04 c 0,0 -3.79,-0.12 -5.77,0.1 -5.18,0.59 -5.76,0.92 -5.76,0.92 z"
   id="path8" />
	<ellipse
   class="st6"
   cx="352.70001"
   cy="102.33"
   rx="1.8200001"
   ry="1.84"
   id="ellipse8" />
	<ellipse
   class="st6"
   cx="370.76001"
   cy="102.33"
   rx="1.8200001"
   ry="1.84"
   id="ellipse9" />
	<path
   class="st7"
   d="m 338.54,101.12 c 0,0 2.12,-2.16 2.3,-3.9 0.18,-1.71 -0.31,-7.55 0.1,-10.93 0.12,-0.96 4.55,-6.33 5.26,-6.64 0.71,-0.31 2.93,-2.86 5.97,-3.57 3.04,-0.71 3.84,-0.23 3.84,-0.23 0,0 0.38,4.32 6.65,4.11 6.27,-0.2 6.61,-4.2 6.61,-4.2 0,0 4.55,1.13 6.68,3.38 2.12,2.25 5.26,5.51 4.96,10.21 -0.3,4.7 -0.1,9.19 1.01,11.13 1.11,1.94 1.42,3.68 1.42,3.68 l 0.4,-20.22 c 0,0 -0.1,-4.73 -5.26,-8.18 -5.16,-3.46 -9.18,-7.85 -16.87,-7.23 -7.69,0.62 -12.68,2.86 -17.1,5.92 -4.45,3.07 -4.74,4.4 -5.89,6.56 -1.42,2.66 -0.08,20.11 -0.08,20.11 z"
   id="path9" />
	<line
   class="st8"
   x1="356.54999"
   y1="104.78"
   x2="351.59"
   y2="108.05"
   id="line9" />
	<path
   class="st9"
   d="m 361.38,102.33 c -1.55,0.23 -0.34,11.78 -0.34,11.78 0,0 3.04,0.69 3.44,0 0.4,-0.69 -0.3,-11.78 -0.3,-11.78 z"
   id="path10" />
	<path
   class="st10"
   d="m 382.7,111.79 c 0,0 -17.41,4.71 -21.32,4.12 -9.07,-1.36 -17.05,-1.89 -15.18,-1.5 l -4.62,-1.54 c 0,0 1.42,22.92 20.57,24.25 12.46,0.86 16.16,-10.02 17.51,-13.63 1.34,-3.62 3.04,-11.7 3.04,-11.7 z"
   id="path11" />
	<path
   class="st11"
   d="m 362.82,120.13 c 0,0 -3.96,-0.63 -5.31,-1.04 -1.35,-0.41 -4.38,-2.31 -4.96,0 -0.57,2.31 2.12,5.45 5.77,6.4 3.64,0.95 4.99,0.68 7.69,0 2.7,-0.68 3.51,-0.6 5.3,-1.77 1.24,-0.81 3.83,-2.42 1.93,-4.69 -1.45,-1.73 -5.07,0.19 -6.42,0.73 -1.35,0.56 -1.27,0 -4,0.37 z"
   id="path12" />
	<path
   class="st8"
   d="m 356.8,120.64 c 0,0 4.45,3.16 7.39,2.76 2.93,-0.41 6.58,-2.76 6.58,-2.76"
   id="path13" />
	<path
   class="st6"
   d="m 377.79,94.57 c 0,0 -4.65,-2.76 -6.47,-3.06 -1.82,-0.3 -5.06,0 -5.06,0 v 2.04 c 0,0 3.79,-0.12 5.77,0.1 5.18,0.59 5.76,0.92 5.76,0.92 z"
   id="path14" />
	<line
   class="st8"
   x1="368.28"
   y1="104.78"
   x2="373.23999"
   y2="108.05"
   id="line14" />
	<path
   class="st8"
   d="m 360.59,104.17 c 0,0 -0.1,8.27 0,9.19 0.1,0.92 0.71,1.53 1.52,1.63 0.81,0.1 3.24,-0.61 3.24,-0.61"
   id="path15" />
	<path
   class="st12"
   d="m 424.16,226.83 -124.15,0.38 c 0,0 11.7,-52.55 14.8,-57.06 4.3,-6.25 12.97,-12.26 19.43,-14.35 5.32,-1.72 13.44,-6.9 13.44,-6.9 0,0 2.38,13.75 14.04,14.02 11.66,0.27 16.41,-14.02 16.41,-14.02 0,0 16.53,7.59 21.66,11.27 5.13,3.68 13.52,7.66 15.54,13.1 2.02,5.45 2.48,10.88 2.48,10.88 z"
   id="path16" />
	<path
   class="st13"
   d="m 338.74,153.61 c 0,0 -17.92,6.13 -22.53,17.01 -6.68,15.76 -16.19,56.6 -16.19,56.6 l 81.86,-4.33 c 0,0 32.27,-66.38 0,-68.92 -2.77,-0.22 -4.86,3.68 -12,7.15 -5.73,2.78 -9.9,0.61 -13.48,-1.61 -4.62,-2.86 -7.35,-11.29 -7.35,-11.29"
   id="path17" />
	<path
   class="st14"
   d="m 398.01,226.17 c 0,0 -1.52,-29.28 0,-37.64 1.52,-8.37 0,-23 0,-23 0,0 4.55,9.41 4.55,23 0,13.59 -4.47,26.18 -2.61,32.43 1.86,6.26 1.86,6.26 1.86,6.26 z"
   id="path18" />
	<path
   class="st15"
   d="m 326.2,225.46 c 0,0 -14.53,-26.2 -13.25,-33.52 1.28,-7.32 0,-13.59 0,-13.59 l 9.31,30.85 z"
   id="path19" />
	<path
   class="st16"
   d="m 352.29,159.23 c -7.48,14.21 -10.39,67.74 -10.39,67.74 h 39.23 c 0,0 16.83,-37.99 16.83,-49.87 0,-24.74 -19.84,-28.18 -19.84,-28.18 0,0 -2.46,8.24 -11.76,13 -6.87,3.52 -14.07,-2.69 -14.07,-2.69 z"
   id="path20" />
	<path
   class="st17"
   d="m 424.16,226.83 -124.15,0.38 c -0.2,-0.09 11.77,-53.26 14.9,-57.75 4.34,-6.23 12.96,-12.26 19.41,-14.35 5.32,-1.72 13.42,-6.9 13.42,-6.9 0,0 2.38,13.75 14.03,14.02 11.64,0.27 16.4,-14.02 16.4,-14.02 0,0 16.51,7.59 21.64,11.27 5.12,3.68 13.5,7.66 15.52,13.1 2.02,5.45 2.48,10.88 2.48,10.88 z"
   id="path21" />
</g>
</svg>
